<?xml version="1.0" encoding="UTF-8"?>
<svg xmlns="http://www.w3.org/2000/svg" version="1.1" viewBox="0 0 131 134">
  <defs>
    <style>
      .cls-1 {
        fill: #020202;
      }
    </style>
  </defs>
  <!-- Generator: Adobe Illustrator 28.7.2, SVG Export Plug-In . SVG Version: 1.2.0 Build 154)  -->
  <g>
    <g id="Capa_2">
      <g id="Capa_1-2">
        <path class="cls-1" d="M126.8,0c-7.2,8.3-14.3,16.7-21.5,25-8.8,10.2-17.6,20.5-26.4,30.7-.2.3-.5.6-.8,1,17.6,25.7,35.3,51.3,53,77.1-.5,0-.8,0-1.1,0-12.2,0-24.5,0-36.8,0-.9,0-1.3-.3-1.8-1-11.4-16.6-22.7-33.1-34.1-49.7-.3-.4-.6-.8-1-1.3-3.3,3.9-6.6,7.6-9.8,11.4-11.4,13.2-22.8,26.5-34.2,39.7-.4.4-1.1.8-1.7.8-3.4,0-6.8,0-10.5,0,17.1-19.9,34.1-39.7,51.2-59.5-.2-.4-.5-.8-.7-1.1C34,49.5,17.5,25.5,1.1,1.5.7,1,.4.5.1,0h39c0,.2.2.4.3.6,11,16,22,32,32.9,47.9.2.2.3.5.5.8,14.3-16.6,28.4-33,42.4-49.3h11.5ZM115.2,125.6c-.3-.6-.5-.9-.8-1.2C87.7,86.2,60.9,47.9,34.1,9.6c-.5-.7-1-.9-1.8-.9-5.1,0-10.2,0-15.3,0s-.7,0-1.2,0c.4.6.7,1,1,1.5,18.9,27.1,37.8,54.1,56.8,81.2,7.7,11.1,15.5,22.2,23.2,33.2.3.4.9,1,1.4,1,5.6,0,11.2,0,17,0Z"/>
      </g>
    </g>
  </g>
</svg>