<?xml version="1.0" encoding="UTF-8"?>
<svg xmlns="http://www.w3.org/2000/svg" version="1.1" viewBox="0 0 129.9 129.9">
  <!-- Generator: Adobe Illustrator 28.7.2, SVG Export Plug-In . SVG Version: 1.2.0 Build 154)  -->
  <g>
    <g id="Capa_2">
      <g id="Capa_1-2">
        <g>
          <path d="M100,129.9H30c-2.4-.5-4.9-.8-7.3-1.6C9,123.9,0,111.6,0,97.2,0,75.7,0,54.2,0,32.7,0,25.7,2,19.3,6.1,13.7,12.8,4.5,22,0,33.3,0c20.9,0,41.9,0,62.8,0,2.2,0,4.4,0,6.6.5,12,2.2,20.4,9,24.9,20.3,1.2,2.9,1.6,6.1,2.3,9.2v70c-.2.9-.3,1.8-.5,2.7-2.2,11.9-9,20.3-20.2,24.9-2.9,1.2-6.2,1.6-9.3,2.3h0ZM65,10.9h0c-10.6,0-21.1-.1-31.7,0-2.6,0-5.3.3-7.7,1.1-9.1,3.1-14.7,11.1-14.7,20.9,0,21.3,0,42.7,0,64.1,0,1.7.1,3.4.5,5,2.4,10.3,10.8,17,21.5,17,21.3,0,42.7,0,64,0,2.5,0,5.1-.4,7.4-1.2,9.1-3.1,14.6-11,14.6-20.8,0-21.4,0-42.8,0-64.2,0-1.3-.1-2.6-.3-3.9-1.3-9.6-10.3-17.9-19.9-18-11.3-.2-22.6,0-33.9,0Z"/>
          <path d="M64.9,97.4c-17.9,0-32.5-14.7-32.5-32.5,0-17.9,14.6-32.4,32.5-32.4s32.5,14.7,32.5,32.5c0,17.9-14.6,32.4-32.5,32.4ZM65,86.6c12,0,21.6-9.7,21.6-21.6,0-12-9.6-21.6-21.6-21.6-12,0-21.7,9.7-21.7,21.7,0,12,9.7,21.6,21.7,21.6h0Z"/>
          <path d="M100.1,37.8c-4.5,0-8.1-3.5-8.1-8,0-4.5,3.6-8.2,8.1-8.2s8.2,3.8,8.1,8.2c0,4.5-3.7,8-8.1,8Z"/>
        </g>
      </g>
    </g>
  </g>
</svg>