<?xml version="1.0" encoding="UTF-8"?>
<svg xmlns="http://www.w3.org/2000/svg" version="1.1" viewBox="0 0 116.9 116.9">
  <!-- Generator: Adobe Illustrator 28.7.2, SVG Export Plug-In . SVG Version: 1.2.0 Build 154)  -->
  <g>
    <g id="Capa_2">
      <g id="Capa_1-2">
        <g>
          <path d="M41.4,38.9h23.1v10.5c.3-.2.5-.2.5-.3,5.2-8.3,12.9-11.9,22.4-12.1,5.3-.1,10.5.5,15.4,2.9,6.3,3,9.8,8.3,11.8,14.8,1.6,5.2,2.1,10.6,2.2,16.1,0,15,0,30.1,0,45.1,0,.2,0,.5,0,.8h-24.2v-1.6c0-12.8,0-25.5,0-38.2,0-2.9-.2-5.8-.8-8.7-1.5-8-6.7-10.7-14.1-9.8-6.8.8-10.5,4.8-11.6,12.1-.4,2.7-.6,5.4-.6,8.1,0,12.2,0,24.4,0,36.5v1.8h-24.2V38.9h0Z"/>
          <path d="M26.1,116.9H2V39h24v77.9Z"/>
          <path d="M28,14c0,7.7-6.2,14.2-13.9,14.2C6.4,28.3,0,21.8,0,14.1,0,6.4,6.3,0,13.9,0c7.7,0,14.1,6.2,14.1,14h0Z"/>
        </g>
      </g>
    </g>
  </g>
</svg>